<?xml version="1.0" encoding="UTF-8" standalone="no"?>
<svg xmlns="http://www.w3.org/2000/svg" viewBox="0 0 820 620">
    <path id="path14" d="M 777.4954,360.92612 C 780.35302,349.94862 780.73784,338.21484 778.70376,325.7226 766.99953,309.3916 756.33873,300.03703 746.72136,297.71083 750.6235,320.74778 750.23868,334.1045 745.56688,337.72796 735.34588,337.99845 728.25737,338.26893 724.30026,338.53942 717.87035,339.02522 713.14468,340.10717 710.12214,341.89131 L 700.12104,354.11306 C 697.42836,355.03164 694.62572,355.68081 691.82308,355.9513 688.25079,356.27589 685.61308,355.8972 683.96492,354.81525 L 678.24969,342.10771 C 677.64496,341.89131 677.09521,341.67492 676.54546,341.40444 661.98362,334.86186 653.46575,329.40016 650.99297,325.07343 649.67356,324.15485 649.39868,323.61388 650.11336,323.50568 621.53723,315.98935 606.42563,323.39749 604.77748,345.73117 604.77748,346.54155 604.83245,347.40711 604.88743,348.32677 598.9523,348.05629 595.54493,352.27482 594.66533,361.08841 593.73185,369.90309 585.37891,372.66099 569.49766,369.41621 558.89074,369.5785 552.46193,373.36426 550.15407,380.77239 555.92317,371.74133 565.32064,369.5244 578.45423,374.01235 587.74175,375.0402 594.55538,370.17358 598.78737,359.41247 599.612,352.92291 601.80991,351.03058 605.49105,353.78847 605.65598,354.92344 605.82091,356.05949 606.09578,357.24964 605.27115,371.74133 609.1733,380.88059 617.80111,384.71936 610.82145,378.06859 608.18374,371.74133 609.94295,365.63045 611.09633,367.30748 612.58066,369.03753 614.33877,370.71455 623.62629,379.79863 631.31952,393.10125 637.30963,410.56831 L 639.34261,395.37335 634.67191,389.20838 620.65872,362.00807 620.65872,355.73491 C 626.09907,361.3048 630.98967,364.1168 635.27554,364.225 L 643.90336,364.225 655.33381,374.82381 661.37889,374.82381 C 670.33656,369.36211 677.37009,367.90256 682.37174,370.44407 L 682.37174,377.63581 677.26014,377.63581 698.91159,393.91272 C 720.89289,400.72686 738.75325,399.64491 752.54654,390.72204 766.28485,381.80025 774.58281,371.84952 777.4954,360.92612" fill="#a558b8"/>
    <path id="path16" d="M 615.3833,137.64664 C 611.81101,134.45596 608.23872,132.23904 604.66753,131.10299 L 554.49492,116.07033 550.59277,128.72377 546.63676,141.43132 C 567.90338,151.05746 584.05951,160.19672 595.16011,168.90211 596.20464,171.44362 597.08314,174.36381 597.79782,177.66269 597.79782,177.77089 597.79782,177.87908 597.85279,177.93318 597.90777,178.20367 598.01772,178.52825 598.0727,178.79874 L 598.2926,181.88014 C 598.23762,182.58341 598.18265,183.23259 598.12767,183.93586 598.0727,184.20634 598.0727,184.42274 598.0727,184.69214 596.91821,202.1051 597.24807,223.46502 599.11722,248.7189 630.22002,252.44947 648.52018,259.5341 654.07048,270.02472 654.45421,261.53464 654.12545,254.28771 653.02595,248.23202 651.54162,239.90422 648.52018,231.63053 643.84838,223.41093 643.46466,222.76175 642.36515,216.48967 640.49599,204.59251 638.68291,193.18223 636.53997,185.93639 634.06719,182.8539 631.42947,170.63324 627.14251,157.97871 621.26235,144.89249 620.54877,142.89195 618.57076,140.51274 615.3833,137.64664" fill="#619ffc"/>
     <path id="path18" d="M 597.79782,177.66269 C 597.08314,174.36381 596.20464,171.44362 595.16011,168.90211 584.05951,160.19672 567.90338,151.05746 546.63676,141.43132 L 541.14143,148.73234 C 541.52626,154.41043 540.7566,158.3574 538.94242,160.46612 537.23929,162.46665 534.1068,163.49451 529.4361,163.54861 513.6648,163.87319 497.94738,163.27812 482.17608,161.76447 471.46031,159.76394 462.44767,153.49077 455.19423,142.94605 L 445.13706,126.39866 408.20909,145.48756 C 397.10849,154.62682 390.34983,161.81856 387.93202,167.00978 385.45813,172.14689 384.1948,178.79874 384.13983,186.90906 L 377.81987,249.42109 C 377.3251,270.45751 379.0843,291.54694 382.98535,312.58228 384.35973,333.61762 387.82207,347.40711 393.42735,353.89667 394.69068,355.73491 396.00898,357.62833 397.38336,359.52066 405.90123,371.79542 415.35257,385.58492 425.79457,400.94325 430.85009,408.4585 434.69616,414.56937 437.33497,419.27479 440.90617,425.70916 442.22557,429.49492 441.18104,430.73808 449.20413,427.44029 457.28219,423.05946 465.47021,417.70595 473.82314,412.24425 481.68131,406.02627 489.10076,399.10393 L 489.53947,389.42369 482.67086,374.33693 C 482.45096,370.82275 483.27559,368.38835 485.08867,367.03699 L 490.96882,367.03699 488.22116,361.03432 486.73793,354.32945 C 486.51803,352.43711 487.45151,350.86828 489.59444,349.62404 L 494.04634,349.62404 507.015,368.65884 511.79565,372.22821 512.07052,366.9829 C 508.55321,359.84525 503.16783,353.03111 495.9144,346.48745 L 496.46415,340.26947 502.50923,339.458 513.33495,345.94756 513.60983,340.48586 522.62137,340.48586 535.59113,353.51799 538.9974,360.81793 538.9974,378.77186 519.10515,401.64544 C 515.53286,419.81576 512.23545,430.62989 509.15793,434.14515 512.45535,432.6856 517.12604,428.95394 523.17112,423.00536 530.48063,411.48797 539.49217,402.83559 550.15407,396.9411 573.94846,396.23783 591.53284,400.67276 602.90832,410.24372 614.22882,419.81576 614.5037,430.30638 603.78792,441.71558 L 626.09907,431.06267 631.3745,423.22175 636.64992,415.43493 637.30963,410.56831 C 631.31952,393.10125 623.62629,379.79863 614.33877,370.71455 612.58066,369.03753 611.09633,367.30748 609.94295,365.63045 608.18374,371.74133 610.82145,378.06859 617.80111,384.71936 609.1733,380.88059 605.27115,371.74133 606.09578,357.24964 605.82091,356.05949 605.65598,354.92344 605.49105,353.78847 601.80991,351.03058 599.612,352.92291 598.78737,359.41247 594.55538,370.17358 587.74175,375.0402 578.45423,374.01235 565.32064,369.5244 555.92317,371.74133 550.15407,380.77239 552.46083,373.36426 558.89074,369.5785 569.49766,369.41621 585.37891,372.66099 593.73185,369.90309 594.66533,361.08841 595.54493,352.27482 598.9523,348.05629 604.88743,348.32677 604.83245,347.40711 604.77748,346.54155 604.77748,345.73117 588.89623,350.5437 576.69612,337.61976 568.17826,306.95829 577.4097,306.03863 585.98254,305.01185 593.95175,303.82278 598.2926,308.09434 609.94295,308.09434 628.90171,303.82278 L 648.74008,298.73869 C 650.16834,294.68352 651.48664,290.57318 652.64112,286.35573 655.00396,277.97384 655.44376,272.51214 654.07048,270.02472 648.52018,259.5341 630.22002,252.44947 599.11722,248.7189 597.24807,223.46502 596.91821,202.1051 598.0727,184.69214 598.0727,184.42274 598.0727,184.20634 598.12767,183.93586 598.18265,183.23259 598.23762,182.58341 598.2926,181.88014 L 598.0727,178.79874 C 598.01772,178.52825 597.90777,178.20367 597.85279,177.93318 597.79782,177.87908 597.79782,177.77089 597.79782,177.66269" fill="#542860"/>
    <path id="path20" d="M 503.99246,70.483305 533.28217,57.452258 492.06833,42.472613 503.99246,70.483305" fill="#663333"/>
    <path id="path22" d="M 533.28217,57.452258 503.99246,70.484387 553.72526,86.761293 533.28217,57.452258" fill="#66ff66"/>
    <path id="path24" d="M 541.14143,148.73234 546.63676,141.43132 550.59277,128.72377 C 539.49217,100.65898 523.94078,81.245495 503.99246,70.483305 508.55321,80.43403 511.68569,92.33119 513.49988,106.17478 515.31296,120.23369 516.30252,136.94337 516.35749,156.35686 528.17167,157.27544 536.41466,154.73502 541.14143,148.73234" fill="#ffff00"/>
    <path id="path26" d="M 550.59277,128.72377 554.49492,116.07033 553.72526,86.761293 503.99246,70.484387 C 523.94078,81.245495 539.49217,100.65898 550.59277,128.72377" fill="#ffcc33"/>
    <path id="path28" d="M 513.49988,106.17478 C 511.68569,92.33119 508.55321,80.43403 503.99246,70.484387 482.17608,91.032845 465.91001,115.20477 455.19423,142.94605 462.77752,147.05531 471.68021,150.19189 481.95618,152.40882 491.2437,154.41043 502.72913,155.70769 516.35749,156.35686 516.30252,136.94337 515.31296,120.23369 513.49988,106.17478" fill="#cc3333"/>
    <path id="path30" d="M 492.06833,42.472613 451.67692,55.991621 503.99246,70.483305 492.06833,42.472613" fill="#83b8da"/>
    <path id="path32" d="M 438.70826,94.223526 445.13816,126.39866 455.19423,142.94605 C 465.91001,115.20477 482.17608,91.032845 503.99246,70.483305 L 438.70826,94.223526" fill="#009900"/>
    <path id="path34" d="M 451.67692,55.991621 438.70826,94.223526 503.99246,70.484387 451.67692,55.991621" fill="#0066ff"/>
    <path id="path36" d="M 529.4361,163.54861 C 534.1068,163.49451 537.23929,162.46665 538.94242,160.46612 540.7566,158.3574 541.52626,154.41043 541.14143,148.73234 536.41466,154.73502 528.17167,157.27544 516.35749,156.35686 502.72913,155.70769 491.2437,154.41043 481.95618,152.40882 471.68021,150.19189 462.77752,147.05531 455.19423,142.94605 462.44767,153.49077 471.46031,159.76394 482.17608,161.76447 497.94738,163.27812 513.6648,163.87319 529.4361,163.54861" fill="#6600ff"/>
    <path id="path38" d="M 496.46415,340.26947 495.9144,346.48745 C 503.16783,353.03111 508.55321,359.84525 512.07052,366.9829 L 511.79565,372.22821 507.015,368.65884 494.04634,349.62404 489.59444,349.62404 C 487.45151,350.86828 486.51803,352.43711 486.73793,354.32945 L 488.22116,361.03432 490.96882,367.03699 485.08867,367.03699 C 483.27559,368.38835 482.45096,370.82275 482.67086,374.33693 L 489.53947,389.42477 489.10076,399.10393 489.26459,404.51153 483.87922,412.73113 C 482.17608,415.92181 479.04359,420.78844 474.53782,427.33209 468.87757,435.4976 465.80006,439.93144 465.30528,440.68881 459.31518,450.09747 455.46911,458.96625 453.65602,467.29404 452.44657,472.97213 452.17169,478.54203 452.8314,484.00341 452.94135,484.97673 453.65602,486.43694 454.97433,488.38369 456.29374,490.33034 457.33717,491.46596 458.05185,491.73645 470.74563,496.44078 486.3531,494.16955 504.92704,484.92263 509.76266,482.86779 516.74232,480.00158 525.86381,476.26993 534.1068,472.91804 540.15188,470.43062 543.94407,468.7536 546.58178,467.83502 553.28546,465.56292 564.11229,461.83234 572.24423,459.02034 578.83906,456.80342 583.94955,455.18049 584.66423,454.9641 585.32394,454.74879 586.03751,454.4783 588.89623,453.34225 591.75274,451.77342 594.55538,449.77289 597.35802,447.77236 600.43553,445.06856 603.78792,441.71558 614.5037,430.30638 614.22882,419.81576 602.90832,410.24372 591.53284,400.67276 573.94846,396.23783 550.15407,396.9411 539.49217,402.83559 530.48063,411.48797 523.17112,423.00536 517.12604,428.95394 512.45535,432.6856 509.15793,434.14515 512.23545,430.63097 515.53286,419.81576 519.10515,401.64544 L 538.9974,378.77186 538.9974,360.81793 535.59113,353.51799 522.62137,340.48586 513.60983,340.48586 513.33495,345.94756 502.50923,339.458 496.46415,340.26947" fill="#b4fec1"/>
    <path id="path40" d="M 417.38666,423.70863 437.33497,419.27479 C 434.69616,414.56937 430.85009,408.45958 425.79457,400.94325 415.35257,385.58492 405.90123,371.79542 397.38336,359.52066 398.09804,370.87685 400.13103,381.96254 403.48342,392.72257 406.83581,403.64597 411.5065,413.9743 417.38666,423.70863" fill="#febb56"/>
    <path id="path42" d="M 418.43009,425.00698 C 418.04636,424.57419 417.66153,424.14141 417.38666,423.70863 411.5065,413.9743 406.83581,403.64597 403.48342,392.72257 400.13103,381.96254 398.09804,370.87685 397.38336,359.52066 396.00898,357.62833 394.69068,355.73491 393.42735,353.89667 387.82207,347.40711 384.35973,333.61762 382.98535,312.58228 379.0843,291.54694 377.3251,270.45751 377.81987,249.42109 L 293.90676,311.50033 C 256.26301,338.43123 242.90952,372.2823 253.95515,413.05572 256.09918,414.46118 258.18714,415.81362 260.33008,417.16498 282.0365,430.46868 304.23771,438.58008 326.93369,441.55329 338.41912,443.01393 350.01339,443.12212 361.7737,441.98607 380.62251,440.09373 399.7462,434.74023 419.25472,425.97965 419.08979,425.70916 418.81491,425.38458 418.43009,425.00698" fill="#0066ff"/>
    <path id="path44" d="M 733.9715,290.73548 C 730.89509,289.33002 727.5427,288.51855 723.86045,288.24807 722.872,287.97758 720.17821,287.4907 715.78239,286.68031 711.38657,285.86885 705.83627,284.78798 699.07651,283.48963 692.31786,282.13719 683.69004,282.24539 673.19417,283.70603 672.64442,283.81422 664.51138,288.84314 648.74008,298.73869 L 628.90171,303.82278 C 609.94295,308.09434 598.2926,308.09434 593.95175,303.82278 585.98254,305.01185 577.4097,306.03863 568.17826,306.95829 576.69612,337.61976 588.89623,350.5437 604.77748,345.73117 606.42563,323.39749 621.53723,315.98935 650.11336,323.50568 L 650.99297,325.07343 C 653.46575,329.40016 661.98362,334.86186 676.54546,341.40444 677.09521,341.67492 677.64496,341.89131 678.24969,342.10771 L 683.96492,354.81525 C 685.61308,355.8972 688.25079,356.27589 691.82308,355.9513 694.62572,355.68081 697.42836,355.03164 700.12104,354.11306 L 710.12214,341.89131 C 713.14468,340.10717 717.87035,339.02522 724.30026,338.53942 728.25737,338.26893 735.34588,337.99845 745.56688,337.72796 750.23868,334.1045 750.6235,320.74778 746.72136,297.71083 745.12708,296.25127 743.36897,295.06221 741.44593,294.14255 739.5218,293.22289 737.05011,292.08792 733.9715,290.73548" fill="#fe4545"/>
    <path id="path46" d="M 620.65872,355.73491 620.65872,362.00807 634.67191,389.20838 639.34261,395.37335 648.63013,400.18588 663.5768,392.99306 677.26014,377.63581 682.37174,377.63581 682.37174,370.44407 C 677.37009,367.90256 670.33656,369.36211 661.37889,374.82381 L 655.33381,374.82381 643.90336,364.225 635.27554,364.225 C 630.98967,364.1168 626.09907,361.3048 620.65872,355.73491" fill="#d0d0d0"/>
    <path id="path48" d="M 603.78792,441.71558 C 600.43553,445.06856 597.35802,447.77236 594.55538,449.77289 591.75274,451.77342 588.89623,453.34225 586.03751,454.4783 597.90777,482.11085 610.7115,507.41839 624.44982,530.2924 L 636.10017,533.53707 C 643.02485,539.53932 646.76097,545.37981 647.3657,551.11157 L 650.00341,558.52002 C 657.20297,565.17144 666.92919,570.47096 679.29312,574.47245 693.36129,579.06909 698.47179,570.63325 694.62572,549.21901 687.59218,526.72369 677.91984,510.82535 665.60978,501.52391 L 631.3745,423.22175 626.09907,431.06267 603.78792,441.71558" fill="#820242"/>
    <path id="path50" d="M 348.69509,103.524 C 342.48508,100.2803 336.93478,98.603273 332.04419,98.495078 326.82374,98.386883 321.27344,99.360641 315.33831,101.46937 L 280.33337,119.9091 C 262.80286,127.48061 250.49391,132.94123 243.29435,136.2401 231.31524,141.70181 222.13768,147.00121 215.81772,152.03013 L 189.6594,162.57485 148.77508,174.36381 C 145.53275,174.6884 142.01565,174.95889 138.27866,175.22938 130.96992,175.71626 126.1343,176.20205 123.71626,176.63483 113.33023,178.42006 105.63667,178.90694 100.63568,177.98728 98.712314,177.77089 97.008961,176.90532 95.635019,175.44577 88.271305,169.98407 77.665481,167.17207 63.762242,166.95568 L 58.101968,166.25241 55.958802,165.98192 C 54.255427,165.87373 52.606599,166.14421 51.013174,166.84748 50.903224,166.90158 50.683323,167.06387 50.408447,167.33436 50.024049,167.60485 49.859123,167.76714 49.804148,167.82124 L 49.30937,168.63271 C 49.254394,168.6868 49.254394,168.6868 49.254394,168.7409 48.26527,170.74143 48.320245,172.74197 49.474295,174.6884 49.639221,174.95889 49.804148,175.17528 50.024049,175.44577 L 50.683323,176.14796 84.534308,213.19079 C 100.08637,212.48752 110.58224,213.19079 116.07767,215.29952 124.70538,218.5984 130.64007,223.30273 133.8824,229.4677 L 112.9454,243.63588 C 111.68141,250.12436 114.48427,252.93635 121.46305,252.12597 131.51967,242.87851 141.13649,238.65998 150.20356,239.57964 162.3488,241.58125 172.07502,234.06384 179.27348,217.03065 182.02224,207.6209 188.72592,202.32149 199.38672,201.13134 215.37792,198.21223 231.31524,196.96798 247.19649,197.34667 264.17615,197.72535 276.92601,195.77784 285.49885,191.39809 L 301.32512,182.25883 296.76437,300.95561 C 262.80286,294.14255 222.46753,287.86938 175.70229,282.19129 165.64511,281.75851 156.688,284.78798 148.93957,291.27645 141.52088,297.49552 137.45447,305.44463 136.79521,315.17789 136.30043,321.93685 136.19048,326.91275 136.3554,329.99524 136.52033,333.07772 137.01511,338.91703 137.89427,347.56941 138.77343,356.16769 139.15826,363.95451 139.04831,370.98504 139.70757,393.96681 141.41093,415.75952 144.15881,436.25388 144.21378,436.47027 145.58773,446.47509 148.33528,466.21209 149.59927,475.24315 149.59927,482.75959 148.44523,488.76194 146.90636,496.71127 146.57695,504.06563 147.51109,510.71716 144.7631,513.85353 143.27965,518.07141 143.11472,523.42503 142.94979,528.72443 140.36684,536.61934 135.36629,547.11007 130.31066,549.32721 126.95848,553.4369 125.30967,559.33149 123.66129,565.27964 122.67206,570.14637 122.28724,573.98601 L 119.5398,582.74647 C 118.38575,586.42342 119.37487,588.53238 122.45216,589.07336 125.52957,589.61391 128.60686,589.45162 131.6846,588.58648 L 145.2029,581.28625 C 150.09361,577.23057 153.50075,574.36426 155.42401,572.5799 158.55661,569.65993 160.91944,566.63165 162.45875,563.44118 163.88701,560.46711 166.46974,557.22255 170.26194,553.59919 172.62477,551.27386 175.81224,548.57027 179.76825,545.488 186.96781,541.64826 192.13329,546.40723 195.15473,559.81794 195.2097,560.25072 195.31965,560.73716 195.4296,561.22404 195.8694,563.33299 196.25423,565.65832 196.58408,568.14562 200.48623,568.41611 203.89249,567.38869 206.7512,565.11734 204.49722,562.03507 203.28886,557.92538 203.01399,552.78816 202.73911,546.19084 204.05742,537.86315 207.07996,527.85887 214.60827,520.55861 210.15747,510.01389 193.83642,496.1703 L 190.539,496.1703 C 188.28612,487.30207 188.23114,478.97481 190.37408,471.13281 193.8914,448.80021 197.51866,433.49598 201.2009,425.22337 204.88205,416.94859 206.91503,408.83718 207.24488,400.99735 207.95956,391.20891 207.46478,381.04288 205.76165,370.60636 221.423,386.88327 237.46917,401.05144 253.95515,413.05572 242.90952,372.2823 256.26301,338.43123 293.90676,311.50033 L 377.81987,249.42109 384.13983,186.90906 C 380.23768,169.55129 373.7539,149.00283 364.74126,125.31778 363.20306,115.58345 357.87266,108.33761 348.69509,103.524" fill="#ff00ff"/>
    <path id="path52" d="M 260.33008,417.16498 257.69237,432.03643 C 251.81221,454.69469 249.11953,469.56506 249.6143,476.75681 242.3048,493.25032 239.83201,504.22793 242.19594,509.63553 L 242.19594,518.01732 C 223.67588,528.61624 210.65225,540.18849 203.01399,552.78816 203.28886,557.92538 204.49722,562.03507 206.7512,565.11734 203.89249,567.38869 200.48623,568.41611 196.58408,568.14562 196.25423,565.65832 195.8694,563.33299 195.4296,561.22404 L 192.02334,568.30792 C 190.92383,573.01268 192.35319,576.4191 196.25423,578.47444 201.36583,579.39368 207.07996,579.33958 213.28996,578.25805 230.82047,572.85039 242.63465,565.17144 248.62475,555.16759 L 273.35371,536.99802 275.00297,539.53932 C 285.38889,538.94467 294.89521,533.96985 303.63298,524.61474 304.62253,519.58528 305.22726,516.39482 305.39219,514.93505 305.88586,511.09541 305.99582,507.68888 305.61099,504.60618 308.6885,491.46596 311.71104,480.32617 314.73358,471.07871 318.36085,459.94 322.42682,450.09747 326.93369,441.55329 304.23771,438.58008 282.0365,430.46868 260.33008,417.16498" fill="#018743"/>
</svg>
